<svg width="36" height="36" viewBox="0 0 36 36" fill="none" xmlns="http://www.w3.org/2000/svg">
<path d="M0 18C0 8.05888 8.05888 0 18 0C27.9411 0 36 8.05888 36 18C36 27.9411 27.9411 36 18 36C8.05888 36 0 27.9411 0 18Z" fill="#DBEAFE"/>
<path d="M24 18.75C24 22.5 21.375 24.375 18.255 25.4625C18.0916 25.5179 17.9142 25.5152 17.7525 25.455C14.625 24.375 12 22.5 12 18.75V13.5C12 13.3011 12.079 13.1103 12.2197 12.9697C12.3603 12.829 12.5511 12.75 12.75 12.75C14.25 12.75 16.125 11.85 17.43 10.71C17.5889 10.5743 17.791 10.4997 18 10.4997C18.209 10.4997 18.4111 10.5743 18.57 10.71C19.8825 11.8575 21.75 12.75 23.25 12.75C23.4489 12.75 23.6397 12.829 23.7803 12.9697C23.921 13.1103 24 13.3011 24 13.5V18.75Z" stroke="#1447E6" stroke-width="1.5" stroke-linecap="round" stroke-linejoin="round"/>
</svg>
